<?xml version="1.0" encoding="UTF-8"?>
<svg xmlns="http://www.w3.org/2000/svg" xmlns:xlink="http://www.w3.org/1999/xlink" width="50pt" height="50pt" viewBox="0 0 50 50" version="1.1">
<g id="surface1">
<path style=" stroke:none;fill-rule:nonzero;fill:rgb(0%,0%,0%);fill-opacity:1;" d="M 24.996094 0.519531 C 11.195312 0.519531 0 11.757812 0 25.621094 C 0 36.707031 7.164062 46.113281 17.101562 49.4375 C 18.351562 49.667969 18.804688 48.890625 18.804688 48.226562 C 18.804688 47.628906 18.785156 46.050781 18.773438 43.957031 C 11.820312 45.472656 10.351562 40.59375 10.351562 40.59375 C 9.214844 37.691406 7.574219 36.921875 7.574219 36.921875 C 5.304688 35.363281 7.742188 35.394531 7.742188 35.394531 C 10.253906 35.574219 11.570312 37.984375 11.570312 37.984375 C 13.804688 41.816406 17.425781 40.710938 18.851562 40.066406 C 19.074219 38.445312 19.722656 37.339844 20.4375 36.710938 C 14.886719 36.078125 9.050781 33.921875 9.050781 24.308594 C 9.050781 21.566406 10.023438 19.328125 11.625 17.570312 C 11.367188 16.9375 10.507812 14.382812 11.867188 10.929688 C 11.867188 10.929688 13.96875 10.253906 18.742188 13.5 C 20.738281 12.945312 22.875 12.667969 25.003906 12.65625 C 27.125 12.671875 29.265625 12.945312 31.261719 13.503906 C 36.035156 10.257812 38.132812 10.933594 38.132812 10.933594 C 39.492188 14.390625 38.636719 16.9375 38.382812 17.574219 C 39.984375 19.328125 40.949219 21.570312 40.949219 24.3125 C 40.949219 33.953125 35.105469 36.074219 29.539062 36.695312 C 30.433594 37.46875 31.234375 39 31.234375 41.34375 C 31.234375 44.699219 31.203125 47.40625 31.203125 48.226562 C 31.203125 48.898438 31.652344 49.679688 32.921875 49.433594 C 42.84375 46.109375 50 36.703125 50 25.621094 C 50 11.757812 38.804688 0.519531 24.996094 0.519531 Z M 24.996094 0.519531 "/>
</g>
</svg>
