<?xml version="1.0" encoding="UTF-8"?>
<svg xmlns="http://www.w3.org/2000/svg" xmlns:xlink="http://www.w3.org/1999/xlink" width="50pt" height="50pt" viewBox="0 0 50 50" version="1.1">
<g id="surface1">
<path style=" stroke:none;fill-rule:nonzero;fill:rgb(0%,47.843137%,72.54902%);fill-opacity:1;" d="M 50 25 C 50 38.808594 38.808594 50 25 50 C 11.191406 50 0 38.808594 0 25 C 0 11.191406 11.191406 0 25 0 C 38.808594 0 50 11.191406 50 25 Z M 50 25 "/>
<path style=" stroke:none;fill-rule:nonzero;fill:rgb(94.509804%,94.901961%,94.901961%);fill-opacity:1;" d="M 39.9375 27.011719 L 39.9375 37.316406 L 33.960938 37.316406 L 33.960938 27.703125 C 33.960938 25.289062 33.097656 23.636719 30.933594 23.636719 C 29.285156 23.636719 28.304688 24.75 27.871094 25.824219 C 27.710938 26.207031 27.671875 26.742188 27.671875 27.28125 L 27.671875 37.316406 L 21.695312 37.316406 C 21.695312 37.316406 21.777344 21.03125 21.695312 19.34375 L 27.671875 19.34375 L 27.671875 21.890625 C 27.660156 21.910156 27.644531 21.933594 27.632812 21.949219 L 27.671875 21.949219 L 27.671875 21.890625 C 28.464844 20.671875 29.882812 18.921875 33.058594 18.921875 C 36.988281 18.921875 39.9375 21.492188 39.9375 27.011719 Z M 15.445312 10.683594 C 13.398438 10.683594 12.0625 12.023438 12.0625 13.785156 C 12.0625 15.511719 13.363281 16.894531 15.367188 16.894531 L 15.40625 16.894531 C 17.488281 16.894531 18.785156 15.511719 18.785156 13.785156 C 18.746094 12.023438 17.488281 10.683594 15.445312 10.683594 Z M 12.417969 37.316406 L 18.390625 37.316406 L 18.390625 19.34375 L 12.417969 19.34375 Z M 12.417969 37.316406 "/>
</g>
</svg>
