<?xml version="1.0" encoding="UTF-8"?>
<svg xmlns="http://www.w3.org/2000/svg" xmlns:xlink="http://www.w3.org/1999/xlink" width="50pt" height="50pt" viewBox="0 0 50 50" version="1.1">
<g id="surface1">
<path style=" stroke:none;fill-rule:nonzero;fill:rgb(33.333333%,67.45098%,93.333333%);fill-opacity:1;" d="M 50 25 C 50 38.808594 38.808594 50 25 50 C 11.191406 50 0 38.808594 0 25 C 0 11.191406 11.191406 0 25 0 C 38.808594 0 50 11.191406 50 25 Z M 50 25 "/>
<path style=" stroke:none;fill-rule:nonzero;fill:rgb(94.509804%,94.901961%,94.901961%);fill-opacity:1;" d="M 40.3125 17.964844 C 39.242188 18.441406 38.089844 18.761719 36.882812 18.90625 C 38.113281 18.167969 39.0625 16.996094 39.507812 15.601562 C 38.355469 16.285156 37.074219 16.78125 35.714844 17.050781 C 34.625 15.890625 33.070312 15.164062 31.351562 15.164062 C 28.050781 15.164062 25.375 17.839844 25.375 21.140625 C 25.375 21.609375 25.429688 22.0625 25.53125 22.5 C 20.566406 22.253906 16.160156 19.875 13.214844 16.257812 C 12.699219 17.140625 12.40625 18.167969 12.40625 19.261719 C 12.40625 21.335938 13.460938 23.164062 15.0625 24.234375 C 14.085938 24.207031 13.164062 23.9375 12.355469 23.488281 C 12.355469 23.511719 12.355469 23.539062 12.355469 23.5625 C 12.355469 26.457031 14.417969 28.875 17.148438 29.421875 C 16.648438 29.558594 16.121094 29.632812 15.578125 29.632812 C 15.191406 29.632812 14.816406 29.59375 14.453125 29.527344 C 15.210938 31.898438 17.417969 33.628906 20.035156 33.675781 C 17.988281 35.277344 15.414062 36.234375 12.613281 36.234375 C 12.128906 36.234375 11.652344 36.207031 11.1875 36.148438 C 13.832031 37.847656 16.972656 38.835938 20.347656 38.835938 C 31.335938 38.835938 37.347656 29.730469 37.347656 21.832031 C 37.347656 21.574219 37.34375 21.316406 37.332031 21.058594 C 38.5 20.21875 39.511719 19.164062 40.3125 17.964844 Z M 40.3125 17.964844 "/>
</g>
</svg>
